STARTFONT 2.1
FONT -Monotype-Century Gothic-Bold-I-Normal--19-140-100-100-P-100-iso8859-9
SIZE 14 100 100
FONTBOUNDINGBOX 28 22 -4 -4

STARTPROPERTIES 24
FOUNDRY "Monotype"
FAMILY_NAME "Century Gothic"
WEIGHT_NAME "Bold"
SLANT "I"
SETWIDTH_NAME "Normal"
ADD_STYLE_NAME ""
PIXEL_SIZE 19
POINT_SIZE 140
RESOLUTION_X 100
RESOLUTION_Y 100
SPACING "P"
AVERAGE_WIDTH 100
CHARSET_REGISTRY "iso8859"
CHARSET_ENCODING "9"
FACE_NAME "Century Gothic Bold Italic ISO Latin5"
_DEC_DEVICE_FONTNAMES "PS=centurygothic-bit-lat5"
COPYRIGHT "Copyright (c) 1994 Monotype Typography Ltd."
CAP_HEIGHT 16
X_HEIGHT 12
WEIGHT 10
QUAD_WIDTH 12
DEFAULT_CHAR 160
FONT_DESCENT 4
FONT_ASCENT 19
ENDPROPERTIES

CHARS 191

STARTCHAR space
ENCODING 32
SWIDTH 280 0
DWIDTH 5 0
BBX 0 0 0 0
BITMAP
ENDCHAR

STARTCHAR exclam
ENCODING 33
SWIDTH 280 0
DWIDTH 5 0
BBX 6 14 0 0
BITMAP
1C
1C
1C
38
38
38
38
70
70
70
00
60
F0
60
ENDCHAR

STARTCHAR quotedbl
ENCODING 34
SWIDTH 360 0
DWIDTH 7 0
BBX 6 5 1 9
BITMAP
CC
CC
CC
CC
88
ENDCHAR

STARTCHAR numbersign
ENCODING 35
SWIDTH 600 0
DWIDTH 11 0
BBX 10 14 1 0
BITMAP
1980
1980
1980
1980
7FC0
7FC0
3300
3300
FF80
FF80
6600
6600
6600
6600
ENDCHAR

STARTCHAR dollar
ENCODING 36
SWIDTH 560 0
DWIDTH 11 0
BBX 11 17 0 -2
BITMAP
0300
07C0
1FE0
1CE0
3800
3800
3C00
1F00
0780
03C0
01C0
E1C0
E380
7F80
3E00
1800
1800
ENDCHAR

STARTCHAR percent
ENCODING 37
SWIDTH 860 0
DWIDTH 16 0
BBX 16 15 0 -1
BITMAP
1C7C
7FFC
EF98
C630
EE60
FCC0
70C0
018E
033F
0377
0663
0C77
187E
1838
3000
ENDCHAR

STARTCHAR ampersand
ENCODING 38
SWIDTH 680 0
DWIDTH 13 0
BBX 12 13 0 0
BITMAP
0F00
1F80
3980
3980
3B80
1F00
3E00
7E20
E760
E3E0
E7C0
FFE0
7CF0
ENDCHAR

STARTCHAR quoteright
ENCODING 39
SWIDTH 280 0
DWIDTH 5 0
BBX 3 5 1 9
BITMAP
60
60
60
40
C0
ENDCHAR

STARTCHAR parenleft
ENCODING 40
SWIDTH 380 0
DWIDTH 7 0
BBX 7 19 1 -4
BITMAP
0E
1C
38
38
70
70
70
E0
E0
E0
E0
E0
E0
E0
E0
E0
70
70
38
ENDCHAR

STARTCHAR parenright
ENCODING 41
SWIDTH 380 0
DWIDTH 7 0
BBX 7 19 -1 -4
BITMAP
38
1C
1C
0E
0E
0E
0E
0E
0E
0E
0E
0E
1C
1C
1C
38
38
70
E0
ENDCHAR

STARTCHAR asterisk
ENCODING 42
SWIDTH 440 0
DWIDTH 8 0
BBX 7 7 1 7
BITMAP
30
B6
F6
7C
DE
DA
18
ENDCHAR

STARTCHAR plus
ENCODING 43
SWIDTH 600 0
DWIDTH 11 0
BBX 10 10 1 2
BITMAP
0C00
0C00
0C00
0C00
FFC0
FFC0
0C00
0C00
0C00
0C00
ENDCHAR

STARTCHAR comma
ENCODING 44
SWIDTH 280 0
DWIDTH 5 0
BBX 4 5 0 -3
BITMAP
30
70
60
C0
80
ENDCHAR

STARTCHAR minus
ENCODING 45
SWIDTH 600 0
DWIDTH 11 0
BBX 9 2 1 6
BITMAP
FF80
FF80
ENDCHAR

STARTCHAR period
ENCODING 46
SWIDTH 280 0
DWIDTH 5 0
BBX 4 3 0 0
BITMAP
60
F0
60
ENDCHAR

STARTCHAR slash
ENCODING 47
SWIDTH 460 0
DWIDTH 9 0
BBX 8 17 1 -3
BITMAP
03
03
03
06
06
0C
0C
08
18
18
30
30
60
60
C0
C0
C0
ENDCHAR

STARTCHAR zero
ENCODING 48
SWIDTH 560 0
DWIDTH 11 0
BBX 9 14 1 0
BITMAP
1E00
3F00
3F00
7380
7380
E380
E380
E380
E380
E700
E700
7E00
7C00
3800
ENDCHAR

STARTCHAR one
ENCODING 49
SWIDTH 560 0
DWIDTH 11 0
BBX 5 14 3 0
BITMAP
78
F8
38
38
38
70
70
70
70
E0
E0
E0
E0
E0
ENDCHAR

STARTCHAR two
ENCODING 50
SWIDTH 560 0
DWIDTH 11 0
BBX 10 14 1 0
BITMAP
1F00
3F80
7BC0
71C0
01C0
0380
0700
0700
0E00
1C00
3800
7000
FF80
FF80
ENDCHAR

STARTCHAR three
ENCODING 51
SWIDTH 560 0
DWIDTH 11 0
BBX 10 14 1 0
BITMAP
1F00
3F80
7BC0
71C0
61C0
0780
0F00
0780
03C0
C1C0
E3C0
F780
7F00
3E00
ENDCHAR

STARTCHAR four
ENCODING 52
SWIDTH 560 0
DWIDTH 11 0
BBX 10 14 1 0
BITMAP
03C0
07C0
07C0
0DC0
1DC0
19C0
3380
7380
6380
FFC0
FFC0
0700
0700
0700
ENDCHAR

STARTCHAR five
ENCODING 53
SWIDTH 560 0
DWIDTH 11 0
BBX 10 14 1 0
BITMAP
1FC0
1FC0
3800
3800
3000
7E00
7F00
7780
0380
0380
6380
F700
7F00
3C00
ENDCHAR

STARTCHAR six
ENCODING 54
SWIDTH 560 0
DWIDTH 11 0
BBX 9 14 1 0
BITMAP
0600
0700
0E00
1E00
1C00
3800
7E00
7F00
F700
E380
E380
7780
7F00
3E00
ENDCHAR

STARTCHAR seven
ENCODING 55
SWIDTH 560 0
DWIDTH 11 0
BBX 9 14 2 0
BITMAP
FF80
FF80
0700
0700
0E00
0E00
1C00
3800
3800
7000
7000
E000
E000
6000
ENDCHAR

STARTCHAR eight
ENCODING 56
SWIDTH 560 0
DWIDTH 11 0
BBX 10 14 1 0
BITMAP
0F00
1F80
39C0
39C0
39C0
1F80
3F00
7380
E1C0
E1C0
E1C0
F380
7F00
3E00
ENDCHAR

STARTCHAR nine
ENCODING 57
SWIDTH 560 0
DWIDTH 11 0
BBX 9 14 1 0
BITMAP
3E00
7F00
F700
E380
E380
7780
7F00
3F00
0E00
1C00
3C00
3800
7000
3000
ENDCHAR

STARTCHAR colon
ENCODING 58
SWIDTH 280 0
DWIDTH 5 0
BBX 5 10 0 0
BITMAP
30
78
30
00
00
00
00
60
F0
60
ENDCHAR

STARTCHAR semicolon
ENCODING 59
SWIDTH 280 0
DWIDTH 5 0
BBX 6 13 -1 -3
BITMAP
18
3C
18
00
00
00
00
00
30
70
60
C0
80
ENDCHAR

STARTCHAR less
ENCODING 60
SWIDTH 600 0
DWIDTH 11 0
BBX 10 11 1 2
BITMAP
00C0
03C0
0780
1E00
7C00
F000
E000
7800
1E00
0780
0180
ENDCHAR

STARTCHAR equal
ENCODING 61
SWIDTH 600 0
DWIDTH 11 0
BBX 9 6 1 4
BITMAP
FF80
FF80
0000
0000
FF80
FF80
ENDCHAR

STARTCHAR greater
ENCODING 62
SWIDTH 600 0
DWIDTH 11 0
BBX 10 11 1 2
BITMAP
6000
7800
1E00
0780
01C0
03C0
0F80
1E00
7800
F000
C000
ENDCHAR

STARTCHAR question
ENCODING 63
SWIDTH 560 0
DWIDTH 11 0
BBX 9 14 1 0
BITMAP
3F00
7F80
E380
E180
0380
0F00
1E00
1C00
3800
3800
0000
3000
7800
3000
ENDCHAR

STARTCHAR at
ENCODING 64
SWIDTH 740 0
DWIDTH 14 0
BBX 14 14 0 0
BITMAP
0FE0
3C70
7018
676C
CFEC
DCE4
9864
9864
DCCC
CFF8
6770
7018
3CF0
0FC0
ENDCHAR

STARTCHAR A
ENCODING 65
SWIDTH 740 0
DWIDTH 14 0
BBX 13 14 0 0
BITMAP
0180
03C0
03C0
07C0
06E0
0EE0
0CE0
1C70
3870
3FF0
7FF0
7038
E038
E038
ENDCHAR

STARTCHAR B
ENCODING 66
SWIDTH 580 0
DWIDTH 11 0
BBX 11 14 0 0
BITMAP
1F80
1FC0
1DE0
1CE0
38E0
39C0
3F80
7FC0
71E0
70E0
70E0
E1C0
FFC0
FF00
ENDCHAR

STARTCHAR C
ENCODING 67
SWIDTH 780 0
DWIDTH 15 0
BBX 14 14 1 0
BITMAP
03E0
0FF8
1F3C
3C1C
7000
7000
E000
E000
E000
E000
F070
79F0
7FE0
1F80
ENDCHAR

STARTCHAR D
ENCODING 68
SWIDTH 700 0
DWIDTH 15 0
BBX 15 14 0 0
BITMAP
1FE0
1FF8
1C3C
381E
380E
380E
380E
700E
701C
701C
7078
E0F0
FFE0
FF80
ENDCHAR

STARTCHAR E
ENCODING 69
SWIDTH 520 0
DWIDTH 10 0
BBX 11 14 0 0
BITMAP
1FE0
1FE0
1C00
3800
3800
3800
3F80
7F80
7000
7000
7000
E000
FF00
FF00
ENDCHAR

STARTCHAR F
ENCODING 70
SWIDTH 480 0
DWIDTH 9 0
BBX 10 14 0 0
BITMAP
1FC0
1FC0
1C00
3800
3800
3800
3F80
7F80
7000
7000
7000
E000
E000
E000
ENDCHAR

STARTCHAR G
ENCODING 71
SWIDTH 840 0
DWIDTH 16 0
BBX 14 14 1 0
BITMAP
03E0
0FF8
1E3C
3C1C
7000
7000
E000
E1FC
E1FC
E01C
F038
78F0
7FF0
1FC0
ENDCHAR

STARTCHAR H
ENCODING 72
SWIDTH 680 0
DWIDTH 13 0
BBX 13 14 0 0
BITMAP
1C38
1C38
1C38
3870
3870
3870
3FF0
7FE0
70E0
70E0
70E0
E1C0
E1C0
E1C0
ENDCHAR

STARTCHAR I
ENCODING 73
SWIDTH 280 0
DWIDTH 6 0
BBX 6 14 0 0
BITMAP
1C
1C
1C
38
38
38
38
70
70
70
70
E0
E0
E0
ENDCHAR

STARTCHAR J
ENCODING 74
SWIDTH 480 0
DWIDTH 9 0
BBX 10 14 -1 0
BITMAP
01C0
01C0
01C0
0380
0380
0380
0700
0700
0700
0700
4E00
EE00
FE00
7C00
ENDCHAR

STARTCHAR K
ENCODING 75
SWIDTH 620 0
DWIDTH 12 0
BBX 12 14 0 0
BITMAP
1C70
1CE0
1DC0
3B80
3B00
3E00
3C00
7E00
7E00
7700
7380
E380
E1C0
E0E0
ENDCHAR

STARTCHAR L
ENCODING 76
SWIDTH 440 0
DWIDTH 8 0
BBX 8 14 0 0
BITMAP
1C
1C
1C
38
38
38
38
70
70
70
70
E0
FF
FF
ENDCHAR

STARTCHAR M
ENCODING 77
SWIDTH 900 0
DWIDTH 17 0
BBX 16 14 0 0
BITMAP
1C07
1C0F
1C0F
3E1F
3E1F
3E3F
7737
7777
7767
73E7
73C7
E3C7
E187
E187
ENDCHAR

STARTCHAR N
ENCODING 78
SWIDTH 740 0
DWIDTH 14 0
BBX 14 14 0 0
BITMAP
1C1C
1C1C
1E1C
3E38
3E38
3B38
3B70
7370
7370
71F0
71E0
E0E0
E0E0
E0E0
ENDCHAR

STARTCHAR O
ENCODING 79
SWIDTH 840 0
DWIDTH 16 0
BBX 14 14 1 0
BITMAP
03C0
0FF0
1E78
3838
701C
701C
E01C
E01C
E038
E038
7070
79E0
3FC0
0F00
ENDCHAR

STARTCHAR P
ENCODING 80
SWIDTH 560 0
DWIDTH 11 0
BBX 11 14 0 0
BITMAP
1F80
1FC0
1DE0
38E0
38E0
39C0
3FC0
7F00
7000
7000
7000
E000
E000
E000
ENDCHAR

STARTCHAR Q
ENCODING 81
SWIDTH 840 0
DWIDTH 16 0
BBX 14 14 1 0
BITMAP
03C0
0FF0
1E78
3838
701C
701C
E01C
E01C
E338
E3B8
70F0
79E0
3FF0
0F30
ENDCHAR

STARTCHAR R
ENCODING 82
SWIDTH 580 0
DWIDTH 11 0
BBX 11 14 0 0
BITMAP
1F80
1FC0
1CE0
3CE0
38E0
39C0
3FC0
7F00
7700
7700
7380
E380
E3C0
E1C0
ENDCHAR

STARTCHAR S
ENCODING 83
SWIDTH 520 0
DWIDTH 10 0
BBX 10 14 0 0
BITMAP
0700
1F80
1DC0
39C0
3800
3C00
1E00
0F00
0780
0380
E380
F700
7F00
3C00
ENDCHAR

STARTCHAR T
ENCODING 84
SWIDTH 420 0
DWIDTH 8 0
BBX 9 14 1 0
BITMAP
FF80
FF80
1C00
1C00
3800
3800
3800
7000
7000
7000
7000
E000
E000
E000
ENDCHAR

STARTCHAR U
ENCODING 85
SWIDTH 640 0
DWIDTH 12 0
BBX 13 14 0 0
BITMAP
1C38
1C38
1C38
3870
3870
3870
70E0
70E0
70E0
E1C0
E1C0
F380
7F80
3F00
ENDCHAR

STARTCHAR V
ENCODING 86
SWIDTH 700 0
DWIDTH 13 0
BBX 12 14 2 0
BITMAP
E070
E070
E0E0
E0E0
E1C0
E1C0
7380
7380
7700
7700
7E00
3E00
3C00
3800
ENDCHAR

STARTCHAR W
ENCODING 87
SWIDTH 900 0
DWIDTH 17 0
BBX 17 14 1 0
BITMAP
E18380
E18380
E3C380
E3C700
E7C700
E6E700
EEEE00
ECEE00
FC6E00
F87C00
F87C00
F03C00
F03800
E03800
ENDCHAR

STARTCHAR X
ENCODING 88
SWIDTH 680 0
DWIDTH 13 0
BBX 13 14 0 0
BITMAP
3838
3838
1C70
0CE0
0FC0
0780
0700
0700
0F80
1D80
39C0
70C0
E0E0
E0E0
ENDCHAR

STARTCHAR Y
ENCODING 89
SWIDTH 620 0
DWIDTH 12 0
BBX 12 14 1 0
BITMAP
E070
E0E0
70E0
71C0
3B80
3B00
1F00
0E00
1C00
1C00
1C00
3800
3800
3800
ENDCHAR

STARTCHAR Z
ENCODING 90
SWIDTH 500 0
DWIDTH 10 0
BBX 11 14 0 0
BITMAP
3FE0
3FE0
01C0
0380
0380
0700
0E00
0E00
1C00
3800
3800
7000
FF00
FF00
ENDCHAR

STARTCHAR bracketleft
ENCODING 91
SWIDTH 320 0
DWIDTH 6 0
BBX 8 18 0 -4
BITMAP
1F
1F
1C
1C
38
38
38
38
70
70
70
70
70
E0
E0
E0
F8
F8
ENDCHAR

STARTCHAR backslash
ENCODING 92
SWIDTH 640 0
DWIDTH 12 0
BBX 8 17 2 -3
BITMAP
C0
C0
C0
60
60
30
30
10
18
18
0C
0C
06
06
03
03
03
ENDCHAR

STARTCHAR bracketright
ENCODING 93
SWIDTH 320 0
DWIDTH 6 0
BBX 8 18 -2 -4
BITMAP
1F
1F
07
07
07
0E
0E
0E
0E
1C
1C
1C
1C
38
38
38
F8
F8
ENDCHAR

STARTCHAR asciicircum
ENCODING 94
SWIDTH 600 0
DWIDTH 11 0
BBX 9 11 1 3
BITMAP
0C00
0C00
1C00
1E00
3E00
3700
7300
6300
E380
C180
C180
ENDCHAR

STARTCHAR underscore
ENCODING 95
SWIDTH 500 0
DWIDTH 10 0
BBX 10 1 0 -2
BITMAP
FFC0
ENDCHAR

STARTCHAR quoteleft
ENCODING 96
SWIDTH 280 0
DWIDTH 5 0
BBX 3 5 2 9
BITMAP
60
40
C0
C0
C0
ENDCHAR

STARTCHAR a
ENCODING 97
SWIDTH 660 0
DWIDTH 13 0
BBX 12 10 1 0
BITMAP
0E70
3F70
79F0
70E0
E0E0
E0E0
E1C0
73C0
7FC0
1DC0
ENDCHAR

STARTCHAR b
ENCODING 98
SWIDTH 660 0
DWIDTH 13 0
BBX 12 14 0 0
BITMAP
1C00
1C00
1C00
3800
3B80
3FE0
3CE0
7070
7070
7070
70E0
F9E0
EFC0
E700
ENDCHAR

STARTCHAR c
ENCODING 99
SWIDTH 640 0
DWIDTH 12 0
BBX 11 10 1 0
BITMAP
0F80
3FC0
78E0
7060
E000
E000
E0C0
71C0
7F80
1F00
ENDCHAR

STARTCHAR d
ENCODING 100
SWIDTH 660 0
DWIDTH 13 0
BBX 13 14 1 0
BITMAP
0038
0038
0038
0070
0E70
3F70
79F0
70E0
E0E0
E0E0
E1C0
73C0
7FC0
1DC0
ENDCHAR

STARTCHAR e
ENCODING 101
SWIDTH 640 0
DWIDTH 12 0
BBX 11 10 1 0
BITMAP
0F00
3FC0
79C0
70E0
FFE0
FFE0
E000
7180
7F80
1F00
ENDCHAR

STARTCHAR f
ENCODING 102
SWIDTH 280 0
DWIDTH 5 0
BBX 8 14 0 0
BITMAP
0F
1F
1C
1C
7E
7E
38
70
70
70
70
E0
E0
E0
ENDCHAR

STARTCHAR g
ENCODING 103
SWIDTH 660 0
DWIDTH 13 0
BBX 12 14 1 -4
BITMAP
0E70
3F70
79F0
70E0
E0E0
E1E0
E1C0
73C0
7FC0
1D80
0380
E380
FF00
7E00
ENDCHAR

STARTCHAR h
ENCODING 104
SWIDTH 600 0
DWIDTH 11 0
BBX 11 14 0 0
BITMAP
1C00
1C00
1C00
3800
3BC0
3FE0
3CE0
78E0
71C0
71C0
71C0
E380
E380
E380
ENDCHAR

STARTCHAR i
ENCODING 105
SWIDTH 240 0
DWIDTH 5 0
BBX 6 14 0 0
BITMAP
1C
1C
1C
00
38
38
38
70
70
70
70
E0
E0
E0
ENDCHAR

STARTCHAR j
ENCODING 106
SWIDTH 260 0
DWIDTH 5 0
BBX 9 18 -3 -4
BITMAP
0380
0380
0380
0000
0700
0700
0700
0E00
0E00
0E00
0E00
1C00
1C00
1C00
3800
3800
F800
F000
ENDCHAR

STARTCHAR k
ENCODING 107
SWIDTH 580 0
DWIDTH 11 0
BBX 11 14 0 0
BITMAP
1C00
1C00
1C00
3800
38E0
39C0
7380
7700
7E00
7E00
E700
E380
E1C0
E0E0
ENDCHAR

STARTCHAR l
ENCODING 108
SWIDTH 240 0
DWIDTH 5 0
BBX 6 14 0 0
BITMAP
1C
1C
1C
38
38
38
38
70
70
70
70
E0
E0
E0
ENDCHAR

STARTCHAR m
ENCODING 109
SWIDTH 940 0
DWIDTH 17 0
BBX 17 10 0 0
BITMAP
3B8F00
3FDF80
3CF380
38E380
71C700
71C700
71C700
E38E00
E38E00
E38E00
ENDCHAR

STARTCHAR n
ENCODING 110
SWIDTH 600 0
DWIDTH 11 0
BBX 11 10 0 0
BITMAP
3BC0
3FE0
3CE0
70E0
71C0
71C0
71C0
E380
E380
E380
ENDCHAR

STARTCHAR o
ENCODING 111
SWIDTH 640 0
DWIDTH 12 0
BBX 11 10 1 0
BITMAP
0F00
3FC0
79C0
70E0
E0E0
E0E0
E1C0
73C0
7F80
1E00
ENDCHAR

STARTCHAR p
ENCODING 112
SWIDTH 660 0
DWIDTH 13 0
BBX 13 14 0 -4
BITMAP
1DC0
1FF0
1E70
1C38
3838
3838
3870
7CF0
77E0
7380
7000
E000
E000
E000
ENDCHAR

STARTCHAR q
ENCODING 113
SWIDTH 660 0
DWIDTH 13 0
BBX 12 14 1 -4
BITMAP
0E70
3F70
79F0
70E0
E0E0
E0E0
E1C0
73C0
7FC0
1DC0
0380
0380
0380
0380
ENDCHAR

STARTCHAR r
ENCODING 114
SWIDTH 320 0
DWIDTH 7 0
BBX 8 10 0 0
BITMAP
37
3F
3C
78
70
70
70
E0
E0
E0
ENDCHAR

STARTCHAR s
ENCODING 115
SWIDTH 440 0
DWIDTH 8 0
BBX 8 10 1 0
BITMAP
3E
7F
73
70
38
1C
0E
CE
FE
7C
ENDCHAR

STARTCHAR t
ENCODING 116
SWIDTH 300 0
DWIDTH 5 0
BBX 7 14 0 0
BITMAP
1C
1C
1C
38
FE
FE
38
70
70
70
70
E0
E0
E0
ENDCHAR

STARTCHAR u
ENCODING 117
SWIDTH 600 0
DWIDTH 11 0
BBX 11 10 0 0
BITMAP
38E0
38E0
38E0
71C0
71C0
71C0
E380
E380
FF00
7E00
ENDCHAR

STARTCHAR v
ENCODING 118
SWIDTH 560 0
DWIDTH 11 0
BBX 10 10 1 0
BITMAP
E1C0
E1C0
E380
7380
7700
7700
3E00
3C00
1C00
1800
ENDCHAR

STARTCHAR w
ENCODING 119
SWIDTH 800 0
DWIDTH 15 0
BBX 15 10 0 0
BITMAP
E18E
E18E
E39C
739C
77B8
76B8
3EF0
3CE0
1CE0
18C0
ENDCHAR

STARTCHAR x
ENCODING 120
SWIDTH 560 0
DWIDTH 11 0
BBX 10 10 1 0
BITMAP
70C0
71C0
3B80
1F00
0E00
1E00
3F00
7380
E1C0
C1C0
ENDCHAR

STARTCHAR y
ENCODING 121
SWIDTH 580 0
DWIDTH 11 0
BBX 10 14 1 -4
BITMAP
E1C0
E1C0
E380
7380
7700
7700
3E00
1E00
1C00
1C00
3800
3000
7000
E000
ENDCHAR

STARTCHAR z
ENCODING 122
SWIDTH 460 0
DWIDTH 9 0
BBX 10 10 0 0
BITMAP
3FC0
3F80
0700
0700
0E00
1C00
1C00
3800
7F80
FF80
ENDCHAR

STARTCHAR braceleft
ENCODING 123
SWIDTH 340 0
DWIDTH 6 0
BBX 8 18 0 -4
BITMAP
07
0F
1C
1C
1C
38
38
70
E0
E0
70
70
70
70
70
70
3C
1C
ENDCHAR

STARTCHAR bar
ENCODING 124
SWIDTH 600 0
DWIDTH 11 0
BBX 1 18 5 -4
BITMAP
80
80
80
80
80
80
80
80
80
80
80
80
80
80
80
80
80
80
ENDCHAR

STARTCHAR braceright
ENCODING 125
SWIDTH 340 0
DWIDTH 6 0
BBX 8 18 -2 -4
BITMAP
38
3C
0E
0E
0E
0E
0C
0E
07
07
0E
1C
1C
38
38
38
F0
E0
ENDCHAR

STARTCHAR asciitilde
ENCODING 126
SWIDTH 600 0
DWIDTH 11 0
BBX 10 5 1 4
BITMAP
7000
FC40
FFC0
8FC0
0380
ENDCHAR

STARTCHAR space
ENCODING 160
SWIDTH 280 0
DWIDTH 6 0
BBX 0 0 0 0
BITMAP
ENDCHAR

STARTCHAR exclamdown
ENCODING 161
SWIDTH 280 0
DWIDTH 5 0
BBX 6 14 -1 -4
BITMAP
18
3C
18
00
38
38
38
38
70
70
70
E0
E0
E0
ENDCHAR

STARTCHAR cent
ENCODING 162
SWIDTH 560 0
DWIDTH 11 0
BBX 11 15 0 -2
BITMAP
0060
0060
07C0
1FC0
3FE0
3960
7300
7600
7400
7CC0
39C0
3F80
7F00
C000
C000
ENDCHAR

STARTCHAR sterling
ENCODING 163
SWIDTH 560 0
DWIDTH 11 0
BBX 11 14 0 0
BITMAP
07C0
0FE0
1CE0
1CE0
1C00
1C00
7F00
7F00
3800
3800
39C0
71C0
FF80
FF00
ENDCHAR

STARTCHAR currency
ENCODING 164
SWIDTH 600 0
DWIDTH 11 0
BBX 10 10 1 2
BITMAP
5E80
FFC0
6180
C0C0
C0C0
C0C0
C0C0
6180
FFC0
5E80
ENDCHAR

STARTCHAR yen
ENCODING 165
SWIDTH 560 0
DWIDTH 11 0
BBX 11 14 0 0
BITMAP
E0E0
E0E0
71C0
71C0
3B80
3B00
7F80
7F80
1C00
FF00
FF00
3800
3800
3800
ENDCHAR

STARTCHAR brokenbar
ENCODING 166
SWIDTH 600 0
DWIDTH 11 0
BBX 1 18 5 -4
BITMAP
80
80
80
80
80
80
00
00
00
00
00
00
80
80
80
80
80
80
ENDCHAR

STARTCHAR section
ENCODING 167
SWIDTH 560 0
DWIDTH 11 0
BBX 10 18 1 -4
BITMAP
0700
0F80
1DC0
18C0
1C00
1E00
3F00
7780
6380
7180
7B80
3F00
1E00
0E00
C600
EE00
7C00
3800
ENDCHAR

STARTCHAR dieresis
ENCODING 168
SWIDTH 500 0
DWIDTH 10 0
BBX 7 3 2 11
BITMAP
66
EE
44
ENDCHAR

STARTCHAR copyright
ENCODING 169
SWIDTH 740 0
DWIDTH 14 0
BBX 13 14 1 0
BITMAP
0F80
3FE0
7070
67B0
CFD8
DED8
DC18
DC18
DED8
CFD8
67B0
7070
3FE0
0F80
ENDCHAR

STARTCHAR ordfeminine
ENCODING 170
SWIDTH 360 0
DWIDTH 7 0
BBX 7 7 0 7
BITMAP
1E
7E
66
CC
DC
FC
6C
ENDCHAR

STARTCHAR guillemotleft
ENCODING 171
SWIDTH 460 0
DWIDTH 9 0
BBX 9 10 0 0
BITMAP
1980
1980
3B80
3300
6600
EE00
6600
7700
3300
3300
ENDCHAR

STARTCHAR logicalnot
ENCODING 172
SWIDTH 600 0
DWIDTH 11 0
BBX 9 6 1 4
BITMAP
FF80
FF80
0180
0180
0180
0180
ENDCHAR

STARTCHAR hyphen
ENCODING 173
SWIDTH 420 0
DWIDTH 8 0
BBX 6 3 1 3
BITMAP
FC
FC
FC
ENDCHAR

STARTCHAR registered
ENCODING 174
SWIDTH 740 0
DWIDTH 14 0
BBX 13 14 1 0
BITMAP
0F80
3FE0
7070
6FB0
CFD8
CCD8
CCD8
CF98
CFD8
CCD8
6CF0
7070
3FE0
0F80
ENDCHAR

STARTCHAR macron
ENCODING 175
SWIDTH 420 0
DWIDTH 8 0
BBX 6 2 2 12
BITMAP
FC
FC
ENDCHAR

STARTCHAR degree
ENCODING 176
SWIDTH 400 0
DWIDTH 8 0
BBX 6 6 1 8
BITMAP
78
CC
84
84
CC
78
ENDCHAR

STARTCHAR plusminus
ENCODING 177
SWIDTH 600 0
DWIDTH 11 0
BBX 10 14 1 0
BITMAP
0C00
0C00
0C00
0C00
FFC0
FFC0
0C00
0C00
0C00
0C00
0000
0000
FFC0
FFC0
ENDCHAR

STARTCHAR twosuperior
ENCODING 178
SWIDTH 336 0
DWIDTH 6 0
BBX 6 7 0 7
BITMAP
38
6C
6C
18
30
60
F8
ENDCHAR

STARTCHAR threesuperior
ENCODING 179
SWIDTH 336 0
DWIDTH 6 0
BBX 6 7 0 7
BITMAP
38
6C
0C
38
18
D8
70
ENDCHAR

STARTCHAR acute
ENCODING 180
SWIDTH 420 0
DWIDTH 8 0
BBX 5 3 2 13
BITMAP
78
70
E0
ENDCHAR

STARTCHAR mu
ENCODING 181
SWIDTH 576 0
DWIDTH 11 0
BBX 12 13 -1 -3
BITMAP
3870
3870
3870
3870
70E0
70E0
79E0
7FE0
7FE0
EEE0
E000
E000
E000
ENDCHAR

STARTCHAR paragraph
ENCODING 182
SWIDTH 600 0
DWIDTH 11 0
BBX 9 17 1 -3
BITMAP
3F80
7900
F900
F900
F900
F900
7900
1900
0900
0900
0900
0900
0900
0900
0900
0900
0900
ENDCHAR

STARTCHAR periodcentered
ENCODING 183
SWIDTH 280 0
DWIDTH 5 0
BBX 3 3 1 5
BITMAP
E0
E0
E0
ENDCHAR

STARTCHAR cedilla
ENCODING 184
SWIDTH 340 0
DWIDTH 6 0
BBX 5 4 1 -4
BITMAP
30
18
D8
70
ENDCHAR

STARTCHAR onesuperior
ENCODING 185
SWIDTH 336 0
DWIDTH 6 0
BBX 3 7 2 7
BITMAP
E0
60
60
60
C0
C0
C0
ENDCHAR

STARTCHAR ordmasculine
ENCODING 186
SWIDTH 360 0
DWIDTH 7 0
BBX 6 7 1 7
BITMAP
38
7C
6C
CC
D8
F8
70
ENDCHAR

STARTCHAR guillemotright
ENCODING 187
SWIDTH 460 0
DWIDTH 9 0
BBX 9 10 0 0
BITMAP
6600
6600
7700
3300
3B80
3300
6600
EE00
CC00
CC00
ENDCHAR

STARTCHAR onequarter
ENCODING 188
SWIDTH 840 0
DWIDTH 16 0
BBX 14 14 2 0
BITMAP
E030
6030
6060
60C0
C180
C180
C300
061C
0C3C
0C6C
18D8
3198
61FC
6018
ENDCHAR

STARTCHAR onehalf
ENCODING 189
SWIDTH 840 0
DWIDTH 16 0
BBX 13 14 2 0
BITMAP
E060
6060
60C0
6180
C300
C300
C600
0C70
18D8
18D8
3030
6060
C0C0
C1F0
ENDCHAR

STARTCHAR threequarters
ENCODING 190
SWIDTH 840 0
DWIDTH 16 0
BBX 14 14 1 0
BITMAP
3818
6C18
0C30
3860
18C0
D8C0
7180
031C
063C
066C
0CD8
1998
31FC
3018
ENDCHAR

STARTCHAR questiondown
ENCODING 191
SWIDTH 560 0
DWIDTH 11 0
BBX 9 14 1 -4
BITMAP
0600
0F00
0600
0000
0E00
0E00
1C00
3C00
7800
E000
C380
E380
FF00
7E00
ENDCHAR

STARTCHAR Agrave
ENCODING 192
SWIDTH 740 0
DWIDTH 14 0
BBX 13 18 0 0
BITMAP
0780
0380
01C0
0000
0180
03C0
03C0
07C0
06E0
0EE0
0CE0
1C70
3870
3FF0
7FF0
7038
E038
E038
ENDCHAR

STARTCHAR Aacute
ENCODING 193
SWIDTH 740 0
DWIDTH 14 0
BBX 13 18 0 0
BITMAP
01E0
01C0
0380
0000
0180
03C0
03C0
07C0
06E0
0EE0
0CE0
1C70
3870
3FF0
7FF0
7038
E038
E038
ENDCHAR

STARTCHAR Acircumflex
ENCODING 194
SWIDTH 740 0
DWIDTH 14 0
BBX 13 18 0 0
BITMAP
01C0
03E0
0770
0000
0180
03C0
03C0
07C0
06E0
0EE0
0CE0
1C70
3870
3FF0
7FF0
7038
E038
E038
ENDCHAR

STARTCHAR Atilde
ENCODING 195
SWIDTH 740 0
DWIDTH 14 0
BBX 13 18 0 0
BITMAP
0390
07F0
04E0
0000
0180
03C0
03C0
07C0
06E0
0EE0
0CE0
1C70
3870
3FF0
7FF0
7038
E038
E038
ENDCHAR

STARTCHAR Adieresis
ENCODING 196
SWIDTH 740 0
DWIDTH 14 0
BBX 13 18 0 0
BITMAP
0330
0770
0220
0000
0180
03C0
03C0
07C0
06E0
0EE0
0CE0
1C70
3870
3FF0
7FF0
7038
E038
E038
ENDCHAR

STARTCHAR Aring
ENCODING 197
SWIDTH 740 0
DWIDTH 14 0
BBX 13 18 1 0
BITMAP
03C0
0660
0660
0240
0180
03C0
03C0
07C0
06E0
0EE0
0CE0
1C70
3870
3FF0
7FF0
7038
E038
E038
ENDCHAR

STARTCHAR AE
ENCODING 198
SWIDTH 900 0
DWIDTH 17 0
BBX 17 14 0 0
BITMAP
00FF80
01FF80
03FF80
077000
067000
0EFF00
1CFF00
18FF00
3FE000
3FC000
7FC000
61FE00
E1FE00
C1FE00
ENDCHAR

STARTCHAR Ccedilla
ENCODING 199
SWIDTH 780 0
DWIDTH 15 0
BBX 14 18 1 -4
BITMAP
03E0
0FF8
1F3C
3C1C
7000
7000
E000
E000
E000
E000
F070
79F0
7FE0
1F80
0600
0300
0300
0E00
ENDCHAR

STARTCHAR Egrave
ENCODING 200
SWIDTH 520 0
DWIDTH 10 0
BBX 11 18 0 0
BITMAP
0F00
0700
0380
0000
1FE0
1FE0
1C00
3800
3800
3800
3F80
7F80
7000
7000
7000
E000
FF00
FF00
ENDCHAR

STARTCHAR Eacute
ENCODING 201
SWIDTH 520 0
DWIDTH 10 0
BBX 11 18 0 0
BITMAP
01E0
01C0
0380
0000
1FE0
1FE0
1C00
3800
3800
3800
3F80
7F80
7000
7000
7000
E000
FF00
FF00
ENDCHAR

STARTCHAR Ecircumflex
ENCODING 202
SWIDTH 520 0
DWIDTH 10 0
BBX 12 18 0 0
BITMAP
01C0
03E0
0770
0000
1FE0
1FE0
1C00
3800
3800
3800
3F80
7F80
7000
7000
7000
E000
FF00
FF00
ENDCHAR

STARTCHAR Edieresis
ENCODING 203
SWIDTH 520 0
DWIDTH 10 0
BBX 11 18 0 0
BITMAP
0660
0EE0
0440
0000
1FE0
1FE0
1C00
3800
3800
3800
3F80
7F80
7000
7000
7000
E000
FF00
FF00
ENDCHAR

STARTCHAR Igrave
ENCODING 204
SWIDTH 280 0
DWIDTH 6 0
BBX 6 18 0 0
BITMAP
78
38
1C
00
1C
1C
1C
38
38
38
38
70
70
70
70
E0
E0
E0
ENDCHAR

STARTCHAR Iacute
ENCODING 205
SWIDTH 280 0
DWIDTH 6 0
BBX 8 18 0 0
BITMAP
0F
0E
1C
00
1C
1C
1C
38
38
38
38
70
70
70
70
E0
E0
E0
ENDCHAR

STARTCHAR Icircumflex
ENCODING 206
SWIDTH 280 0
DWIDTH 6 0
BBX 9 18 0 0
BITMAP
0E00
1F00
3B80
0000
1C00
1C00
1C00
3800
3800
3800
3800
7000
7000
7000
7000
E000
E000
E000
ENDCHAR

STARTCHAR Idieresis
ENCODING 207
SWIDTH 280 0
DWIDTH 6 0
BBX 9 18 0 0
BITMAP
1980
3B80
1100
0000
1C00
1C00
1C00
3800
3800
3800
3800
7000
7000
7000
7000
E000
E000
E000
ENDCHAR

STARTCHAR Gbreve
ENCODING 208
SWIDTH 840 0
DWIDTH 16 0
BBX 14 18 1 0
BITMAP
0618
07F8
03F0
0000
03E0
0FF8
1E3C
3C1C
7000
7000
E000
E1FC
E1FC
E01C
F038
78F0
7FF0
1FC0
ENDCHAR

STARTCHAR Ntilde
ENCODING 209
SWIDTH 740 0
DWIDTH 14 0
BBX 14 18 0 0
BITMAP
01C8
03F8
0270
0000
1C1C
1C1C
1E1C
3E38
3E38
3B38
3B70
7370
7370
71F0
71E0
E0E0
E0E0
E0E0
ENDCHAR

STARTCHAR Ograve
ENCODING 210
SWIDTH 840 0
DWIDTH 16 0
BBX 14 18 1 0
BITMAP
03C0
01C0
00E0
0000
03C0
0FF0
1E78
3838
701C
701C
E01C
E01C
E038
E038
7070
79E0
3FC0
0F00
ENDCHAR

STARTCHAR Oacute
ENCODING 211
SWIDTH 840 0
DWIDTH 16 0
BBX 14 18 1 0
BITMAP
00F0
00E0
01C0
0000
03C0
0FF0
1E78
3838
701C
701C
E01C
E01C
E038
E038
7070
79E0
3FC0
0F00
ENDCHAR

STARTCHAR Ocircumflex
ENCODING 212
SWIDTH 840 0
DWIDTH 16 0
BBX 14 18 1 0
BITMAP
01C0
03E0
0770
0000
03C0
0FF0
1E78
3838
701C
701C
E01C
E01C
E038
E038
7070
79E0
3FC0
0F00
ENDCHAR

STARTCHAR Otilde
ENCODING 213
SWIDTH 840 0
DWIDTH 16 0
BBX 14 18 1 0
BITMAP
01C8
03F8
0270
0000
03C0
0FF0
1E78
3838
701C
701C
E01C
E01C
E038
E038
7070
79E0
3FC0
0F00
ENDCHAR

STARTCHAR Odieresis
ENCODING 214
SWIDTH 840 0
DWIDTH 16 0
BBX 14 18 1 0
BITMAP
0318
0738
0210
0000
03C0
0FF0
1E78
3838
701C
701C
E01C
E01C
E038
E038
7070
79E0
3FC0
0F00
ENDCHAR

STARTCHAR multiply
ENCODING 215
SWIDTH 600 0
DWIDTH 11 0
BBX 8 8 2 3
BITMAP
82
C7
6E
3C
38
7C
E6
43
ENDCHAR

STARTCHAR Oslash
ENCODING 216
SWIDTH 840 0
DWIDTH 16 0
BBX 14 14 1 0
BITMAP
03CC
0FF8
1E78
3878
70DC
719C
E31C
E31C
E638
EC38
7870
79E0
7FC0
CF00
ENDCHAR

STARTCHAR Ugrave
ENCODING 217
SWIDTH 640 0
DWIDTH 12 0
BBX 13 18 0 0
BITMAP
0780
0380
01C0
0000
1C38
1C38
1C38
3870
3870
3870
70E0
70E0
70E0
E1C0
E1C0
F380
7F80
3F00
ENDCHAR

STARTCHAR Uacute
ENCODING 218
SWIDTH 640 0
DWIDTH 12 0
BBX 13 18 0 0
BITMAP
00F0
00E0
01C0
0000
1C38
1C38
1C38
3870
3870
3870
70E0
70E0
70E0
E1C0
E1C0
F380
7F80
3F00
ENDCHAR

STARTCHAR Ucircumflex
ENCODING 219
SWIDTH 640 0
DWIDTH 12 0
BBX 13 18 0 0
BITMAP
00E0
01F0
03B8
0000
1C38
1C38
1C38
3870
3870
3870
70E0
70E0
70E0
E1C0
E1C0
F380
7F80
3F00
ENDCHAR

STARTCHAR Udieresis
ENCODING 220
SWIDTH 640 0
DWIDTH 12 0
BBX 13 18 0 0
BITMAP
0318
0738
0210
0000
1C38
1C38
1C38
3870
3870
3870
70E0
70E0
70E0
E1C0
E1C0
F380
7F80
3F00
ENDCHAR

STARTCHAR Idotaccent
ENCODING 221
SWIDTH 280 0
DWIDTH 6 0
BBX 7 18 0 0
BITMAP
06
0E
04
00
1C
1C
1C
38
38
38
38
70
70
70
70
E0
E0
E0
ENDCHAR

STARTCHAR Scedilla
ENCODING 222
SWIDTH 520 0
DWIDTH 10 0
BBX 10 18 0 -4
BITMAP
0700
1F80
1DC0
39C0
3800
3C00
1E00
0F00
0780
0380
E380
F700
7F00
3C00
1800
0C00
0C00
3800
ENDCHAR

STARTCHAR germandbls
ENCODING 223
SWIDTH 600 0
DWIDTH 11 0
BBX 11 14 0 0
BITMAP
07C0
0FE0
1CE0
1C60
38E0
3BC0
3B80
71C0
70E0
70E0
70E0
E5E0
E7C0
E780
ENDCHAR

STARTCHAR agrave
ENCODING 224
SWIDTH 660 0
DWIDTH 13 0
BBX 12 15 1 0
BITMAP
0F00
0700
0380
0000
0000
0E70
3F70
79F0
70E0
E0E0
E0E0
E1C0
73C0
7FC0
1DC0
ENDCHAR

STARTCHAR aacute
ENCODING 225
SWIDTH 660 0
DWIDTH 13 0
BBX 12 15 1 0
BITMAP
03C0
0380
0700
0000
0000
0E70
3F70
79F0
70E0
E0E0
E0E0
E1C0
73C0
7FC0
1DC0
ENDCHAR

STARTCHAR acircumflex
ENCODING 226
SWIDTH 660 0
DWIDTH 13 0
BBX 12 15 1 0
BITMAP
01C0
03E0
0770
0000
0000
0E70
3F70
79F0
70E0
E0E0
E0E0
E1C0
73C0
7FC0
1DC0
ENDCHAR

STARTCHAR atilde
ENCODING 227
SWIDTH 660 0
DWIDTH 13 0
BBX 12 15 1 0
BITMAP
0390
07F0
04E0
0000
0000
0E70
3F70
79F0
70E0
E0E0
E0E0
E1C0
73C0
7FC0
1DC0
ENDCHAR

STARTCHAR adieresis
ENCODING 228
SWIDTH 660 0
DWIDTH 13 0
BBX 12 15 1 0
BITMAP
0630
0E70
0420
0000
0000
0E70
3F70
79F0
70E0
E0E0
E0E0
E1C0
73C0
7FC0
1DC0
ENDCHAR

STARTCHAR aring
ENCODING 229
SWIDTH 660 0
DWIDTH 13 0
BBX 12 15 1 0
BITMAP
01E0
0330
0330
01E0
0000
0E70
3F70
79F0
70E0
E0E0
E0E0
E1C0
73C0
7FC0
1DC0
ENDCHAR

STARTCHAR ae
ENCODING 230
SWIDTH 1080 0
DWIDTH 20 0
BBX 18 10 1 0
BITMAP
0EEE00
3FFF80
79F380
70E1C0
E0FFC0
E1FFC0
E1C000
73E300
7FFF00
1DBE00
ENDCHAR

STARTCHAR ccedilla
ENCODING 231
SWIDTH 640 0
DWIDTH 12 0
BBX 11 14 1 -4
BITMAP
0F80
3FC0
78E0
7060
E000
E000
E0C0
71C0
7F80
1F00
0600
0300
0300
0E00
ENDCHAR

STARTCHAR egrave
ENCODING 232
SWIDTH 640 0
DWIDTH 12 0
BBX 11 15 1 0
BITMAP
1E00
0E00
0700
0000
0000
0F00
3FC0
79C0
70E0
FFE0
FFE0
E000
7180
7F80
1F00
ENDCHAR

STARTCHAR eacute
ENCODING 233
SWIDTH 640 0
DWIDTH 12 0
BBX 11 15 1 0
BITMAP
03C0
0380
0700
0000
0000
0F00
3FC0
79C0
70E0
FFE0
FFE0
E000
7180
7F80
1F00
ENDCHAR

STARTCHAR ecircumflex
ENCODING 234
SWIDTH 640 0
DWIDTH 12 0
BBX 11 15 1 0
BITMAP
0700
0F80
1DC0
0000
0000
0F00
3FC0
79C0
70E0
FFE0
FFE0
E000
7180
7F80
1F00
ENDCHAR

STARTCHAR edieresis
ENCODING 235
SWIDTH 640 0
DWIDTH 12 0
BBX 11 14 1 0
BITMAP
18C0
39C0
1080
0000
0F00
3FC0
79C0
70E0
FFE0
FFE0
E000
7180
7F80
1F00
ENDCHAR

STARTCHAR igrave
ENCODING 236
SWIDTH 240 0
DWIDTH 5 0
BBX 6 15 0 0
BITMAP
78
38
1C
00
00
38
38
38
70
70
70
70
E0
E0
E0
ENDCHAR

STARTCHAR iacute
ENCODING 237
SWIDTH 240 0
DWIDTH 5 0
BBX 7 15 0 0
BITMAP
1E
1C
38
00
00
38
38
38
70
70
70
70
E0
E0
E0
ENDCHAR

STARTCHAR icircumflex
ENCODING 238
SWIDTH 240 0
DWIDTH 5 0
BBX 8 15 0 0
BITMAP
1C
3E
77
00
00
38
38
38
70
70
70
70
E0
E0
E0
ENDCHAR

STARTCHAR idieresis
ENCODING 239
SWIDTH 240 0
DWIDTH 5 0
BBX 8 15 0 0
BITMAP
33
77
22
00
00
38
38
38
70
70
70
70
E0
E0
E0
ENDCHAR

STARTCHAR gbreve
ENCODING 240
SWIDTH 660 0
DWIDTH 13 0
BBX 12 19 1 -4
BITMAP
0C30
0FF0
07E0
0000
0000
0E70
3F70
79F0
70E0
E0E0
E1E0
E1C0
73C0
7FC0
1D80
0380
E380
FF00
7E00
ENDCHAR

STARTCHAR ntilde
ENCODING 241
SWIDTH 600 0
DWIDTH 11 0
BBX 11 15 0 0
BITMAP
0720
0FE0
09C0
0000
0000
3BC0
3FE0
3CE0
70E0
71C0
71C0
71C0
E380
E380
E380
ENDCHAR

STARTCHAR ograve
ENCODING 242
SWIDTH 640 0
DWIDTH 12 0
BBX 11 15 1 0
BITMAP
1E00
0E00
0700
0000
0000
0F00
3FC0
79C0
70E0
E0E0
E0E0
E1C0
73C0
7F80
1E00
ENDCHAR

STARTCHAR oacute
ENCODING 243
SWIDTH 640 0
DWIDTH 12 0
BBX 11 15 1 0
BITMAP
0780
0700
0E00
0000
0000
0F00
3FC0
79C0
70E0
E0E0
E0E0
E1C0
73C0
7F80
1E00
ENDCHAR

STARTCHAR ocircumflex
ENCODING 244
SWIDTH 640 0
DWIDTH 12 0
BBX 11 15 1 0
BITMAP
0700
0F80
1DC0
0000
0000
0F00
3FC0
79C0
70E0
E0E0
E0E0
E1C0
73C0
7F80
1E00
ENDCHAR

STARTCHAR otilde
ENCODING 245
SWIDTH 640 0
DWIDTH 12 0
BBX 11 15 1 0
BITMAP
0E40
1FC0
1380
0000
0000
0F00
3FC0
79C0
70E0
E0E0
E0E0
E1C0
73C0
7F80
1E00
ENDCHAR

STARTCHAR odieresis
ENCODING 246
SWIDTH 640 0
DWIDTH 12 0
BBX 11 15 1 0
BITMAP
18C0
39C0
1080
0000
0000
0F00
3FC0
79C0
70E0
E0E0
E0E0
E1C0
73C0
7F80
1E00
ENDCHAR

STARTCHAR divide
ENCODING 247
SWIDTH 600 0
DWIDTH 11 0
BBX 9 10 1 1
BITMAP
1C00
1C00
1C00
0000
FF80
FF80
0000
1C00
1C00
1C00
ENDCHAR

STARTCHAR oslash
ENCODING 248
SWIDTH 660 0
DWIDTH 12 0
BBX 12 10 1 0
BITMAP
0F30
3FE0
79C0
73E0
E6E0
ECE0
F9C0
73C0
7F80
DE00
ENDCHAR

STARTCHAR ugrave
ENCODING 249
SWIDTH 600 0
DWIDTH 11 0
BBX 11 15 0 0
BITMAP
0F00
0700
0380
0000
0000
38E0
38E0
38E0
71C0
71C0
71C0
E380
E380
FF00
7E00
ENDCHAR

STARTCHAR uacute
ENCODING 250
SWIDTH 600 0
DWIDTH 11 0
BBX 11 15 0 0
BITMAP
03C0
0380
0700
0000
0000
38E0
38E0
38E0
71C0
71C0
71C0
E380
E380
FF00
7E00
ENDCHAR

STARTCHAR ucircumflex
ENCODING 251
SWIDTH 600 0
DWIDTH 11 0
BBX 11 15 0 0
BITMAP
0380
07C0
0EE0
0000
0000
38E0
38E0
38E0
71C0
71C0
71C0
E380
E380
FF00
7E00
ENDCHAR

STARTCHAR udieresis
ENCODING 252
SWIDTH 600 0
DWIDTH 11 0
BBX 11 15 0 0
BITMAP
0C60
1CE0
0840
0000
0000
38E0
38E0
38E0
71C0
71C0
71C0
E380
E380
FF00
7E00
ENDCHAR

STARTCHAR dotlessi
ENCODING 253
SWIDTH 240 0
DWIDTH 5 0
BBX 5 10 0 0
BITMAP
38
38
38
70
70
70
70
E0
E0
E0
ENDCHAR

STARTCHAR scedilla
ENCODING 254
SWIDTH 440 0
DWIDTH 8 0
BBX 8 14 1 -4
BITMAP
3E
7F
73
70
38
1C
0E
CE
FE
7C
30
18
18
70
ENDCHAR

STARTCHAR ydieresis
ENCODING 255
SWIDTH 580 0
DWIDTH 11 0
BBX 10 19 1 -4
BITMAP
18C0
39C0
1080
0000
0000
E1C0
E1C0
E380
7380
7700
7700
3E00
1E00
1C00
1C00
3800
3000
7000
E000
ENDCHAR
ENDFONT
